<svg xmlns="http://www.w3.org/2000/svg" viewBox="0 0 24 24" fill="none">
  <g stroke="#2563eb" stroke-width="2.2" stroke-linecap="round">
    <line x1="12" y1="2.5" x2="12" y2="8" transform="rotate(0 12 12)"/>
    <line x1="12" y1="2.5" x2="12" y2="8" transform="rotate(22.5 12 12)"/>
    <line x1="12" y1="2.5" x2="12" y2="8" transform="rotate(45 12 12)"/>
    <line x1="12" y1="2.5" x2="12" y2="8" transform="rotate(67.5 12 12)"/>
    <line x1="12" y1="2.5" x2="12" y2="8" transform="rotate(90 12 12)"/>
    <line x1="12" y1="2.5" x2="12" y2="8" transform="rotate(112.5 12 12)"/>
    <line x1="12" y1="2.5" x2="12" y2="8" transform="rotate(135 12 12)"/>
    <line x1="12" y1="2.5" x2="12" y2="8" transform="rotate(157.5 12 12)"/>
    <line x1="12" y1="2.5" x2="12" y2="8" transform="rotate(180 12 12)"/>
    <line x1="12" y1="2.5" x2="12" y2="8" transform="rotate(202.5 12 12)"/>
    <line x1="12" y1="2.5" x2="12" y2="8" transform="rotate(225 12 12)"/>
    <line x1="12" y1="2.5" x2="12" y2="8" transform="rotate(247.5 12 12)"/>
    <line x1="12" y1="2.5" x2="12" y2="8" transform="rotate(270 12 12)"/>
    <line x1="12" y1="2.5" x2="12" y2="8" transform="rotate(292.5 12 12)"/>
    <line x1="12" y1="2.5" x2="12" y2="8" transform="rotate(315 12 12)"/>
    <line x1="12" y1="2.5" x2="12" y2="8" transform="rotate(337.5 12 12)"/>
  </g>
</svg>
